<?xml version="1.0" encoding="UTF-8"?>
<svg id="Calque_2" data-name="Calque 2" xmlns="http://www.w3.org/2000/svg" viewBox="0 0 89.62 37.97">
  <defs>
    <style>
      .cls-1 {
        fill: #ab7d21;
      }

      .cls-2 {
        fill: #6c5948;
      }

      .cls-3 {
        fill: #c22f19;
      }
    </style>
  </defs>
  <g id="Calque_1-2" data-name="Calque 1">
    <g>
      <g>
        <g>
          <path class="cls-3" d="M12.28,16.63c-1.15-1.3-2.6-1.93-4.32-1.93s-3.2.62-4.28,1.89v-2.62H0v18.37h3.67v-6.08c1.1,1.27,2.52,1.9,4.28,1.9s3.17-.65,4.32-1.94,1.73-2.89,1.73-4.77-.58-3.53-1.73-4.82ZM9.39,23.93c-.63.66-1.42.99-2.37.99s-1.73-.32-2.38-.99c-.65-.68-.97-1.51-.97-2.49s.32-1.86.97-2.53c.65-.68,1.44-1.01,2.38-1.01s1.73.34,2.37,1.01c.63.68.94,1.52.94,2.53s-.31,1.82-.94,2.49Z"/>
          <path class="cls-3" d="M35.74,24.92h-7.06v-9.36h-3.67v.99c-1.06-1.24-2.48-1.86-4.28-1.86s-3.18.63-4.32,1.93c-1.15,1.28-1.75,2.87-1.75,4.79s.59,3.51,1.75,4.8c1.14,1.3,2.59,1.94,4.32,1.94s3.21-.63,4.28-1.87c.03.17.15.66.6,1.07.49.45,1.06.5,1.22.51,2.97.02,5.94.03,8.91.05v-3ZM24.03,23.92c-.65.68-1.45,1-2.39,1s-1.73-.32-2.37-.99c-.65-.68-.96-1.51-.96-2.52s.31-1.86.96-2.52c.63-.66,1.42-1,2.37-1s1.75.34,2.39,1.01c.65.68.97,1.51.97,2.51s-.32,1.83-.97,2.51Z"/>
          <path class="cls-3" d="M47.67,15.56v.99c-1.06-1.24-2.48-1.86-4.28-1.86s-3.18.63-4.34,1.93c-.79.87-1.31,1.89-1.55,3.06-.13.54-.18,1.13-.18,1.73s.06,1.18.18,1.73c.25,1.17.76,2.18,1.55,3.07,1.15,1.3,2.6,1.94,4.34,1.94s3.21-.63,4.28-1.87v1.63h3.67v-12.35h-3.68ZM46.7,23.92c-.65.68-1.45,1-2.39,1s-1.73-.32-2.38-.99c-.63-.68-.94-1.51-.94-2.52s.31-1.86.94-2.52c.65-.66,1.44-1,2.38-1s1.75.34,2.39,1.01c.65.68.97,1.51.97,2.51s-.32,1.83-.97,2.51Z"/>
          <path class="cls-3" d="M62.81,14.92l-3.37,9.32-3.35-9.32h-3.89l5.2,13h4.1l5.17-13h-3.86Z"/>
          <path class="cls-3" d="M79.76,21.36c-.03-2.14-.63-3.8-1.86-5.03s-2.79-1.82-4.7-1.82-3.59.65-4.9,1.97c-1.3,1.32-1.96,2.97-1.96,4.96s.66,3.52,1.97,4.83c1.31,1.32,2.96,1.99,4.91,1.99,1.08,0,2.13-.23,3.11-.69,1-.46,1.8-1.11,2.39-1.93l-2.22-1.87c-.77,1-1.87,1.51-3.31,1.51-.86,0-1.61-.25-2.24-.75-.62-.48-1.03-1.18-1.2-2.1h9.97c.01-.25.03-.62.03-1.07ZM69.81,20.08c.23-.84.65-1.51,1.25-1.99.61-.48,1.32-.72,2.17-.72,1.68,0,2.75.9,3.22,2.7h-6.65Z"/>
          <path class="cls-3" d="M84.63,16.61v-1.69h-3.67v13h3.67v-5.96c0-1.2.31-2.13.92-2.82.62-.68,1.34-1.01,2.18-1.01.72,0,1.35.14,1.89.44v-3.87c-2.31-.04-3.97.61-4.98,1.91Z"/>
        </g>
        <g>
          <path class="cls-1" d="M30.49,3.32c.91,0,.91-1.41,0-1.41s-.91,1.41,0,1.41Z"/>
          <path class="cls-1" d="M35.03,1.2s.1.07.14.11c.11.06.23.1.36.1h.13c.1,0,.19-.02.27-.06.09-.03.16-.08.23-.15.07-.06.12-.14.15-.23.04-.08.06-.17.06-.27,0-.06-.02-.12-.03-.19-.03-.12-.09-.22-.18-.31-.05-.04-.1-.07-.14-.11-.11-.06-.23-.1-.36-.1h-.13c-.1,0-.19.02-.27.06-.09.03-.16.08-.23.15-.07.06-.12.14-.15.23-.04.08-.06.17-.06.27,0,.06.02.12.03.19.03.12.09.22.18.31Z"/>
          <path class="cls-1" d="M34.62,9.88c.7.12,2.01.35,2.85.49.99.08,4.22,1.17,3.19-.6-1.25-.56-3.12-.58-4.42-.95,0-.04-.01-.11-.01-.14,1.34-.51,2.89-1.14,4.3-1.53,1.28-.1,2.65.12,3.94.03.82-.09.83-1.21.01-1.33-.34-.07-.71-.05-1.05-.07-.53-.13-2.59.29-1.66-.64.41-.47,1.21-1.4.35-1.84-.93-.24-1.36,1.04-1.94,1.57-1.31,2.03-3.83,2.01-5.87,3-.72.17-.5-.55-.52-1.17.04-.43-.03-.98.2-1.24.46-.37,1.36-.32,1.96-.55.94-.28,2.94-.91,2.07-2.15-.34-.28-.86-.04-1.07.17-.64.54-1.31.57-2.35.83-.64.02-.48-.32-.38-.91.24-.69.13-1.86-.85-1.49-.81.77-.63,2.53-.91,3.54-.04.25-.19.23-.25.29-.65.3-1.88-.16-2.36-.73-.33-.39-1.09-.61-1.33-.01-.24.79.75,1.42,1.37,1.78.65.46,1.7.36,2.32.55.21.23.19,1.07,0,1.41-.41.12-1.07-.03-1.54-.06-2.39-.19-4.34-1.98-5.26-4.2-.19-.63-.91-1.37-1.43-.61-.3,1.13.88,2.51,1.49,3.45.72.96,1.86,1.74,2.86,2.21.23.15-.31.21-.76.28-.84.28-3.31.04-2.65,1.46.33.41.95.25,1.44.18,1.62-.17,3.78-.74,5.22-.71,0,1.01-.65,12.48-.56,12.5.85.04,2.19,0,3.31.01.59,0,.95,0,1.01,0,.15.36-.95-12.95-.82-12.81h.09Z"/>
          <path class="cls-1" d="M32.21,5.2s-.01,0-.02.01c0,0,0,0,0,0,0,0,.01,0,.02-.01Z"/>
        </g>
      </g>
      <g>
        <path class="cls-2" d="M48.41,37.89v-5.6h.92v5.6h-.92Z"/>
        <path class="cls-2" d="M55.47,37.89h-1.12l-2.75-4.46h-.03l.02.25c.04.48.05.91.05,1.3v2.91h-.83v-5.6h1.11l2.74,4.44h.02c0-.06-.02-.27-.03-.64s-.02-.66-.02-.86v-2.93h.84v5.6Z"/>
        <path class="cls-2" d="M60.17,36.37c0,.5-.18.89-.54,1.17-.36.28-.86.42-1.49.42s-1.15-.1-1.55-.3v-.86c.26.12.53.21.81.28.29.07.55.1.8.1.36,0,.63-.07.8-.21.17-.14.26-.32.26-.56,0-.21-.08-.39-.24-.53s-.48-.32-.98-.52c-.51-.21-.87-.44-1.08-.71-.21-.27-.31-.58-.31-.96,0-.47.17-.83.5-1.1.33-.27.78-.4,1.34-.4s1.07.12,1.6.35l-.29.75c-.5-.21-.94-.31-1.33-.31-.3,0-.52.06-.67.19-.15.13-.23.3-.23.51,0,.15.03.27.09.37.06.1.16.2.3.29.14.09.39.21.76.36.41.17.71.33.9.48.19.15.33.31.42.5.09.19.13.41.13.66Z"/>
        <path class="cls-2" d="M63.19,37.89h-.92v-4.81h-1.65v-.79h4.21v.79h-1.65v4.81Z"/>
        <path class="cls-2" d="M65.69,37.89v-5.6h.92v5.6h-.92Z"/>
        <path class="cls-2" d="M70.02,37.89h-.92v-4.81h-1.65v-.79h4.21v.79h-1.65v4.81Z"/>
        <path class="cls-2" d="M76.91,32.29v3.62c0,.41-.09.78-.27,1.09-.18.31-.43.55-.77.71-.34.17-.74.25-1.2.25-.69,0-1.23-.18-1.62-.55-.38-.37-.58-.87-.58-1.52v-3.61h.92v3.54c0,.46.11.8.32,1.02.21.22.54.33.99.33.86,0,1.29-.45,1.29-1.36v-3.53h.92Z"/>
        <path class="cls-2" d="M80.28,37.89h-.92v-4.81h-1.65v-.79h4.21v.79h-1.65v4.81Z"/>
        <path class="cls-2" d="M85.95,37.89h-3.17v-5.6h3.17v.77h-2.25v1.52h2.11v.77h-2.11v1.76h2.25v.78Z"/>
      </g>
      <rect class="cls-1" x="0" y="35.21" width="45.59" height="1.19"/>
    </g>
  </g>
</svg>